<svg width="106" height="61" viewBox="0 0 106 61" fill="none" xmlns="http://www.w3.org/2000/svg">
<path d="M1.55932 17V0.343621H5.17411L10.49 9.88855L15.8058 0.343621H19.3261V17H15.4042V7.95122L11.6004 14.5429H9.23779L5.48125 8.04572V17H1.55932ZM28.4408 17.2599C27.0232 17.2599 25.7947 17.0158 24.7551 16.5275C23.7313 16.0235 22.9438 15.3147 22.3925 14.4011C21.8413 13.4876 21.5656 12.4087 21.5656 11.1644C21.5656 9.98306 21.8255 8.93563 22.3453 8.02209C22.8808 7.10855 23.6053 6.39977 24.5189 5.89575C25.4482 5.37597 26.5035 5.11609 27.6848 5.11609C28.8503 5.11609 29.8584 5.36022 30.7089 5.8485C31.5752 6.33677 32.2367 7.03767 32.6935 7.95122C33.166 8.84901 33.4023 9.9043 33.4023 11.1171V12.0385H25.582C25.7238 12.7946 26.0388 13.338 26.5271 13.6687C27.0154 13.9995 27.6926 14.1649 28.5589 14.1649C29.1575 14.1649 29.7796 14.0782 30.4254 13.905C31.0869 13.716 31.6697 13.4482 32.1737 13.1017L33.2133 15.8659C32.6147 16.2912 31.8823 16.6299 31.016 16.8819C30.1498 17.1339 29.2913 17.2599 28.4408 17.2599ZM27.8738 7.83309C27.2437 7.83309 26.724 8.02209 26.3145 8.40011C25.9207 8.77813 25.6687 9.3294 25.5584 10.0539H29.9529C29.9056 9.31365 29.7009 8.76238 29.3386 8.40011C28.9921 8.02209 28.5038 7.83309 27.8738 7.83309ZM35.2141 17V5.37597H39.3014V7.33694C39.8369 5.99813 40.9946 5.26572 42.7744 5.13971L43.9321 5.04521L44.1684 8.58912L41.8767 8.80175C41.0419 8.88051 40.4355 9.11677 40.0574 9.51054C39.6794 9.88855 39.4904 10.4556 39.4904 11.2116V17H35.2141ZM45.4582 17V5.37597H49.5455V7.33694C50.081 5.99813 51.2387 5.26572 53.0186 5.13971L54.1762 5.04521L54.4125 8.58912L52.1208 8.80175C51.286 8.88051 50.6796 9.11677 50.3016 9.51054C49.9235 9.88855 49.7345 10.4556 49.7345 11.2116V17H45.4582ZM57.1264 21.2527L59.4653 16.1967L54.7165 5.37597H59.1346L61.6862 11.9676L64.3323 5.37597H68.4905L61.379 21.2527H57.1264ZM76.8545 17.2599C76.0827 17.2599 75.3739 17.0945 74.7281 16.7637C74.0824 16.4172 73.602 15.9683 73.287 15.4171V17H69.1996V0.343621H73.4051V6.76991C73.7359 6.26589 74.2084 5.86425 74.8227 5.56498C75.4527 5.26572 76.13 5.11609 76.8545 5.11609C77.8625 5.11609 78.7446 5.36022 79.5006 5.8485C80.2724 6.33677 80.8709 7.03767 81.2962 7.95122C81.7215 8.84901 81.9341 9.92793 81.9341 11.188C81.9341 12.4323 81.7136 13.5112 81.2726 14.4248C80.8473 15.3383 80.2488 16.0392 79.477 16.5275C78.721 17.0158 77.8468 17.2599 76.8545 17.2599ZM75.5314 14.1649C76.1615 14.1649 76.6812 13.9286 77.0908 13.4561C77.5003 12.9836 77.705 12.2275 77.705 11.188C77.705 10.1327 77.5003 9.37665 77.0908 8.91988C76.6812 8.44736 76.1615 8.2111 75.5314 8.2111C74.8857 8.2111 74.358 8.44736 73.9485 8.91988C73.539 9.37665 73.3342 10.1327 73.3342 11.188C73.3342 12.2275 73.539 12.9836 73.9485 13.4561C74.358 13.9286 74.8857 14.1649 75.5314 14.1649ZM90.1824 17.2599C88.7648 17.2599 87.5362 17.0158 86.4967 16.5275C85.4729 16.0235 84.6854 15.3147 84.1341 14.4011C83.5828 13.4876 83.3072 12.4087 83.3072 11.1644C83.3072 9.98306 83.5671 8.93563 84.0868 8.02209C84.6224 7.10855 85.3469 6.39977 86.2604 5.89575C87.1897 5.37597 88.245 5.11609 89.4263 5.11609C90.5919 5.11609 91.5999 5.36022 92.4505 5.8485C93.3168 6.33677 93.9783 7.03767 94.4351 7.95122C94.9076 8.84901 95.1438 9.9043 95.1438 11.1171V12.0385H87.3236C87.4654 12.7946 87.7804 13.338 88.2687 13.6687C88.7569 13.9995 89.4342 14.1649 90.3005 14.1649C90.899 14.1649 91.5212 14.0782 92.167 13.905C92.8285 13.716 93.4113 13.4482 93.9153 13.1017L94.9548 15.8659C94.3563 16.2912 93.6239 16.6299 92.7576 16.8819C91.8913 17.1339 91.0329 17.2599 90.1824 17.2599ZM89.6153 7.83309C88.9853 7.83309 88.4655 8.02209 88.056 8.40011C87.6623 8.77813 87.4102 9.3294 87.3 10.0539H91.6944C91.6472 9.31365 91.4424 8.76238 91.0802 8.40011C90.7336 8.02209 90.2454 7.83309 89.6153 7.83309ZM102.959 17.2599C101.195 17.2599 99.8875 16.8504 99.037 16.0313C98.1864 15.2123 97.7612 13.9759 97.7612 12.322V8.47099H95.5876V5.37597H97.7612V1.99745H101.967V5.37597H105.274V8.47099H101.967V12.1803C101.967 13.3143 102.542 13.8814 103.691 13.8814C103.88 13.8814 104.085 13.8656 104.306 13.8341C104.542 13.7869 104.802 13.7239 105.085 13.6451L105.652 16.6692C105.29 16.8582 104.865 17 104.376 17.0945C103.888 17.2048 103.416 17.2599 102.959 17.2599ZM9.77677 43.3646C8.23016 43.3646 6.6946 43.1436 5.17009 42.7017C3.66767 42.2377 2.47457 41.6301 1.5908 40.8789L3.44673 36.3385C5.41313 37.6863 7.47895 38.3602 9.64421 38.3602C10.771 38.3602 11.6437 38.1171 12.2624 37.6311C12.881 37.145 13.1904 36.4601 13.1904 35.5763C13.1904 34.7146 12.8921 34.0297 12.2955 33.5215C11.699 32.9912 10.9036 32.7261 9.90934 32.7261C8.4732 32.7261 7.19173 33.2343 6.06491 34.2506H2.25363V19.6352H17.4988V24.5733H7.98713V28.716C9.00347 28.1636 10.1745 27.8874 11.5001 27.8874C12.9805 27.8874 14.284 28.2078 15.4108 28.8485C16.5377 29.4672 17.4104 30.3399 18.029 31.4667C18.6698 32.5935 18.9901 33.9082 18.9901 35.4106C18.9901 37.0014 18.6145 38.4044 17.8633 39.6196C17.1121 40.8127 16.0516 41.7406 14.6817 42.4035C13.3119 43.0442 11.6769 43.3646 9.77677 43.3646ZM30.6762 43.3646C28.8423 43.3646 27.0858 43.1436 25.4067 42.7017C23.7275 42.2377 22.3466 41.6301 21.264 40.8789L22.9542 36.1397C23.9705 36.8246 25.1636 37.3659 26.5335 37.7636C27.9033 38.1613 29.2842 38.3602 30.6762 38.3602C32.1344 38.3602 33.1508 38.1724 33.7252 37.7968C34.3218 37.3991 34.62 36.913 34.62 36.3385C34.62 35.8304 34.4101 35.4216 33.9903 35.1123C33.5926 34.803 32.8746 34.5378 31.8361 34.3169L27.9586 33.4884C23.7606 32.5825 21.6617 30.3841 21.6617 26.8932C21.6617 25.3687 22.0704 24.032 22.8879 22.883C23.7275 21.7341 24.8874 20.8504 26.3678 20.2317C27.8481 19.591 29.5715 19.2706 31.5379 19.2706C33.1508 19.2706 34.6753 19.5026 36.1114 19.9666C37.5696 20.4085 38.7517 21.0161 39.6576 21.7894L37.9673 26.2303C37.1277 25.6117 36.1556 25.1367 35.0509 24.8053C33.9461 24.4518 32.7531 24.275 31.4716 24.275C30.2343 24.275 29.2842 24.4959 28.6214 24.9378C27.9586 25.3576 27.6272 25.91 27.6272 26.5949C27.6272 27.081 27.826 27.4787 28.2237 27.788C28.6214 28.0973 29.3284 28.3625 30.3448 28.5834L34.1892 29.4119C38.4534 30.3178 40.5855 32.461 40.5855 35.8414C40.5855 37.3659 40.1768 38.6916 39.3593 39.8184C38.5418 40.9452 37.3929 41.8179 35.9126 42.4366C34.4322 43.0552 32.6868 43.3646 30.6762 43.3646ZM51.4743 43.3646C48.9998 43.3646 47.1659 42.7901 45.9728 41.6412C44.7797 40.4923 44.1832 38.7579 44.1832 36.438V31.0359H41.1342V26.6943H44.1832V21.9551H50.0824V26.6943H54.7222V31.0359H50.0824V36.2391C50.0824 37.8299 50.8888 38.6253 52.5017 38.6253C52.7669 38.6253 53.0541 38.6032 53.3634 38.559C53.6948 38.4927 54.0594 38.4044 54.4571 38.2939L55.2525 42.536C54.7443 42.8012 54.1478 43 53.4628 43.1326C52.7779 43.2872 52.1151 43.3646 51.4743 43.3646ZM62.7021 43.3646C61.4427 43.3646 60.327 43.1326 59.3548 42.6686C58.4047 42.2046 57.6535 41.5749 57.1012 40.7795C56.5709 39.962 56.3058 39.0341 56.3058 37.9956C56.3058 36.8246 56.6151 35.8966 57.2337 35.2117C57.8524 34.5047 58.8466 34.0076 60.2165 33.7204C61.5863 33.411 63.4091 33.2564 65.6848 33.2564H66.9442V32.7924C66.9442 31.997 66.7343 31.4336 66.3145 31.1022C65.9168 30.7707 65.2209 30.605 64.2266 30.605C63.387 30.605 62.4591 30.7376 61.4427 31.0027C60.4264 31.2679 59.4321 31.6766 58.46 32.229L56.9686 28.3514C57.521 27.9537 58.228 27.6002 59.0897 27.2909C59.9513 26.9816 60.8572 26.7496 61.8073 26.5949C62.7573 26.4182 63.6522 26.3298 64.4917 26.3298C67.2094 26.3298 69.2199 26.9153 70.5235 28.0863C71.8492 29.2573 72.512 31.1022 72.512 33.6209V43H67.0105V40.6801C66.7233 41.5197 66.2041 42.1825 65.4529 42.6686C64.7016 43.1326 63.7847 43.3646 62.7021 43.3646ZM64.0278 39.5201C64.8453 39.5201 65.5302 39.255 66.0825 38.7247C66.657 38.1945 66.9442 37.4985 66.9442 36.6368V36.0403H65.6848C64.3813 36.0403 63.4202 36.1839 62.8015 36.4711C62.205 36.7362 61.9067 37.1671 61.9067 37.7636C61.9067 38.2718 62.0835 38.6916 62.437 39.023C62.8126 39.3544 63.3428 39.5201 64.0278 39.5201ZM75.8712 43V26.6943H81.6047V29.4451C82.3559 27.5671 83.9799 26.5397 86.4765 26.3629L88.1005 26.2303L88.4319 31.2016L85.2172 31.4999C84.0461 31.6103 83.1955 31.9418 82.6652 32.4941C82.135 33.0244 81.8699 33.8198 81.8699 34.8803V43H75.8712ZM96.5751 43.3646C95.0727 43.3646 93.6808 43.2099 92.3993 42.9006C91.1399 42.5913 90.0683 42.1604 89.1846 41.6081L90.5434 37.7968C91.3609 38.2608 92.3109 38.6474 93.3935 38.9567C94.4762 39.244 95.5478 39.3876 96.6083 39.3876C97.4258 39.3876 98.0113 39.2771 98.3648 39.0561C98.7183 38.8131 98.8951 38.5038 98.8951 38.1282C98.8951 37.7968 98.7735 37.5537 98.5305 37.3991C98.3096 37.2223 97.9892 37.0897 97.5694 37.0014L93.8907 36.4048C92.5208 36.1839 91.4603 35.6868 90.7091 34.9134C89.9579 34.1401 89.5823 33.1348 89.5823 31.8976C89.5823 30.7487 89.9026 29.7655 90.5434 28.948C91.1841 28.1084 92.0789 27.4676 93.2278 27.0257C94.3768 26.5618 95.6914 26.3298 97.1717 26.3298C98.3427 26.3298 99.5027 26.4734 100.652 26.7606C101.8 27.0257 102.806 27.4676 103.667 28.0863L102.209 31.8313C101.568 31.3894 100.773 31.0248 99.823 30.7376C98.873 30.4283 98.0223 30.2736 97.2711 30.2736C96.3652 30.2736 95.7245 30.4062 95.3489 30.6713C94.9733 30.9144 94.7855 31.2126 94.7855 31.5661C94.7855 32.1627 95.1942 32.5273 96.0117 32.6598L99.6905 33.2895C101.104 33.5105 102.187 33.9965 102.938 34.7477C103.712 35.4769 104.098 36.4711 104.098 37.7305C104.098 39.5201 103.413 40.9121 102.044 41.9063C100.674 42.8785 98.8509 43.3646 96.5751 43.3646ZM0.855267 58V48.5787H5.38551C6.45459 48.5787 7.27868 48.8549 7.85777 49.4072C8.44576 49.9507 8.73976 50.7035 8.73976 51.6657C8.73976 52.6279 8.44576 53.3851 7.85777 53.9375C7.27868 54.4809 6.45459 54.7527 5.38551 54.7527H3.31416V58H0.855267ZM3.31416 52.8684H4.95788C5.92005 52.8684 6.40114 52.4675 6.40114 51.6657C6.40114 50.8639 5.92005 50.463 4.95788 50.463H3.31416V52.8684ZM9.59524 58V51.4251H11.9071V52.5343C12.21 51.777 12.8649 51.3628 13.8716 51.2915L14.5264 51.238L14.66 53.2426L13.3638 53.3628C12.8916 53.4074 12.5486 53.541 12.3348 53.7638C12.1209 53.9776 12.014 54.2983 12.014 54.7259V58H9.59524ZM18.8536 58.147C18.0518 58.147 17.3568 58.0089 16.7689 57.7327C16.1898 57.4476 15.7443 57.0467 15.4325 56.53C15.1207 56.0133 14.9648 55.403 14.9648 54.6992C14.9648 54.031 15.1118 53.4386 15.4058 52.9219C15.7087 52.4051 16.1185 52.0042 16.6352 51.7191C17.1608 51.4251 17.7578 51.2781 18.4259 51.2781C19.0852 51.2781 19.6554 51.4162 20.1365 51.6924C20.6265 51.9686 21.0006 52.365 21.259 52.8818C21.5263 53.3896 21.6599 53.9865 21.6599 54.6725V55.1937H17.2366C17.3168 55.6213 17.4949 55.9287 17.7711 56.1157C18.0473 56.3028 18.4304 56.3964 18.9204 56.3964C19.2589 56.3964 19.6108 56.3474 19.9761 56.2494C20.3503 56.1425 20.6799 55.991 20.965 55.795L21.553 57.3585C21.2145 57.5991 20.8002 57.7906 20.3102 57.9332C19.8202 58.0757 19.3347 58.147 18.8536 58.147ZM18.5328 52.8149C18.1765 52.8149 17.8825 52.9219 17.6508 53.1357C17.4281 53.3495 17.2856 53.6613 17.2232 54.0711H19.7088C19.6821 53.6524 19.5663 53.3406 19.3614 53.1357C19.1654 52.9219 18.8892 52.8149 18.5328 52.8149ZM22.7115 58V51.4251H25.0233V52.3071C25.2283 51.9953 25.5 51.7459 25.8385 51.5588C26.186 51.3717 26.5824 51.2781 27.0279 51.2781C27.4733 51.2781 27.8564 51.3761 28.1771 51.5721C28.5068 51.7681 28.7562 52.071 28.9255 52.4809C29.1482 52.0978 29.4511 51.8038 29.8342 51.5989C30.2173 51.385 30.6405 51.2781 31.1038 51.2781C31.8699 51.2781 32.4357 51.5098 32.8009 51.973C33.1751 52.4274 33.3622 53.1401 33.3622 54.1112V58H30.9835V54.178C30.9835 53.7949 30.9256 53.5188 30.8098 53.3495C30.6939 53.1802 30.5024 53.0956 30.2351 53.0956C29.9055 53.0956 29.6516 53.2114 29.4734 53.443C29.3041 53.6747 29.2195 54.0043 29.2195 54.4319V58H26.8408V54.178C26.8408 53.7949 26.7829 53.5188 26.6671 53.3495C26.5512 53.1802 26.3597 53.0956 26.0924 53.0956C25.7717 53.0956 25.5223 53.2114 25.3441 53.443C25.1748 53.6747 25.0902 54.0043 25.0902 54.4319V58H22.7115ZM34.6764 50.2892V48.1377H37.1754V50.2892H34.6764ZM34.7432 58V51.4251H37.122V58H34.7432ZM42.0832 58.147C41.2814 58.147 40.5864 58.0089 39.9985 57.7327C39.4194 57.4476 38.9739 57.0467 38.6621 56.53C38.3503 56.0133 38.1944 55.403 38.1944 54.6992C38.1944 54.031 38.3414 53.4386 38.6354 52.9219C38.9383 52.4051 39.3481 52.0042 39.8648 51.7191C40.3905 51.4251 40.9874 51.2781 41.6555 51.2781C42.3148 51.2781 42.885 51.4162 43.3661 51.6924C43.8561 51.9686 44.2302 52.365 44.4886 52.8818C44.7559 53.3896 44.8895 53.9865 44.8895 54.6725V55.1937H40.4662C40.5464 55.6213 40.7245 55.9287 41.0007 56.1157C41.2769 56.3028 41.66 56.3964 42.15 56.3964C42.4885 56.3964 42.8404 56.3474 43.2057 56.2494C43.5799 56.1425 43.9095 55.991 44.1946 55.795L44.7826 57.3585C44.4441 57.5991 44.0298 57.7906 43.5398 57.9332C43.0498 58.0757 42.5643 58.147 42.0832 58.147ZM41.7624 52.8149C41.4061 52.8149 41.1121 52.9219 40.8804 53.1357C40.6577 53.3495 40.5152 53.6613 40.4528 54.0711H42.9384C42.9117 53.6524 42.7959 53.3406 42.591 53.1357C42.395 52.9219 42.1188 52.8149 41.7624 52.8149ZM45.9143 58V51.4251H48.2262V52.5343C48.5291 51.777 49.1839 51.3628 50.1907 51.2915L50.8455 51.238L50.9791 53.2426L49.6829 53.3628C49.2107 53.4074 48.8677 53.541 48.6539 53.7638C48.44 53.9776 48.3331 54.2983 48.3331 54.7259V58H45.9143ZM55.6928 58V48.5787H58.1517V55.9554H62.3478V58H55.6928ZM66.8658 58.147C66.064 58.147 65.369 58.0089 64.781 57.7327C64.202 57.4476 63.7565 57.0467 63.4447 56.53C63.1329 56.0133 62.977 55.403 62.977 54.6992C62.977 54.031 63.124 53.4386 63.418 52.9219C63.7209 52.4051 64.1307 52.0042 64.6474 51.7191C65.173 51.4251 65.77 51.2781 66.4381 51.2781C67.0974 51.2781 67.6676 51.4162 68.1487 51.6924C68.6387 51.9686 69.0128 52.365 69.2712 52.8818C69.5385 53.3896 69.6721 53.9865 69.6721 54.6725V55.1937H65.2488C65.329 55.6213 65.5071 55.9287 65.7833 56.1157C66.0595 56.3028 66.4426 56.3964 66.9326 56.3964C67.2711 56.3964 67.623 56.3474 67.9883 56.2494C68.3625 56.1425 68.6921 55.991 68.9772 55.795L69.5652 57.3585C69.2267 57.5991 68.8124 57.7906 68.3224 57.9332C67.8324 58.0757 67.3469 58.147 66.8658 58.147ZM66.545 52.8149C66.1887 52.8149 65.8947 52.9219 65.663 53.1357C65.4403 53.3495 65.2978 53.6613 65.2354 54.0711H67.721C67.6943 53.6524 67.5785 53.3406 67.3736 53.1357C67.1776 52.9219 66.9014 52.8149 66.545 52.8149ZM72.9821 58.147C72.4743 58.147 72.0244 58.0535 71.6324 57.8664C71.2493 57.6793 70.9464 57.4254 70.7237 57.1046C70.5098 56.775 70.4029 56.4008 70.4029 55.9821C70.4029 55.5099 70.5277 55.1357 70.7771 54.8596C71.0266 54.5745 71.4275 54.374 71.9798 54.2582C72.5322 54.1335 73.2672 54.0711 74.1848 54.0711H74.6926V53.884C74.6926 53.5633 74.608 53.3361 74.4387 53.2025C74.2784 53.0689 73.9977 53.002 73.5968 53.002C73.2583 53.002 72.8841 53.0555 72.4743 53.1624C72.0645 53.2693 71.6636 53.4341 71.2716 53.6568L70.6702 52.0933C70.8929 51.9329 71.178 51.7904 71.5255 51.6657C71.8729 51.541 72.2382 51.4474 72.6213 51.385C73.0044 51.3138 73.3652 51.2781 73.7037 51.2781C74.7995 51.2781 75.6103 51.5142 76.1359 51.9864C76.6704 52.4586 76.9377 53.2025 76.9377 54.2181V58H74.7194V57.0646C74.6035 57.4031 74.3942 57.6704 74.0913 57.8664C73.7884 58.0535 73.4186 58.147 72.9821 58.147ZM73.5166 56.5968C73.8463 56.5968 74.1224 56.4899 74.3452 56.2761C74.5768 56.0623 74.6926 55.7817 74.6926 55.4342V55.1937H74.1848C73.6592 55.1937 73.2716 55.2516 73.0222 55.3674C72.7816 55.4743 72.6614 55.648 72.6614 55.8886C72.6614 56.0935 72.7326 56.2627 72.8752 56.3964C73.0266 56.53 73.2405 56.5968 73.5166 56.5968ZM81.5529 60.5524C80.8937 60.5524 80.2745 60.4901 79.6954 60.3653C79.1252 60.2406 78.6352 60.0357 78.2254 59.7506L78.8401 58.147C79.1787 58.3519 79.5796 58.5123 80.0428 58.6281C80.515 58.7439 80.9427 58.8018 81.3258 58.8018C81.8692 58.8018 82.2746 58.686 82.5418 58.4544C82.818 58.2316 82.9561 57.8797 82.9561 57.3986V56.7839C82.769 57.1046 82.4884 57.3585 82.1142 57.5456C81.74 57.7327 81.3391 57.8263 80.9115 57.8263C80.3235 57.8263 79.8112 57.6926 79.3747 57.4254C78.9381 57.1492 78.5951 56.7661 78.3457 56.2761C78.1051 55.7861 77.9849 55.2115 77.9849 54.5522C77.9849 53.8929 78.1051 53.3183 78.3457 52.8283C78.5951 52.3383 78.9381 51.9597 79.3747 51.6924C79.8112 51.4162 80.3235 51.2781 80.9115 51.2781C81.3569 51.2781 81.7623 51.3761 82.1276 51.5721C82.5017 51.7592 82.7735 52.0087 82.9427 52.3205V51.4251H85.268V57.118C85.268 58.2673 84.9473 59.127 84.3058 59.6972C83.6644 60.2673 82.7467 60.5524 81.5529 60.5524ZM81.6465 56.0756C82.0385 56.0756 82.3503 55.942 82.5819 55.6747C82.8136 55.4075 82.9294 55.0333 82.9294 54.5522C82.9294 54.0711 82.8136 53.6969 82.5819 53.4297C82.3503 53.1624 82.0385 53.0288 81.6465 53.0288C81.2634 53.0288 80.956 53.1624 80.7244 53.4297C80.4928 53.6969 80.3769 54.0711 80.3769 54.5522C80.3769 55.0333 80.4928 55.4075 80.7244 55.6747C80.956 55.942 81.2634 56.0756 81.6465 56.0756ZM89.1164 58.147C88.2611 58.147 87.6286 57.9154 87.2188 57.4521C86.8179 56.9799 86.6174 56.2627 86.6174 55.3006V51.4251H88.9961V55.3674C88.9961 56.0088 89.2723 56.3296 89.8247 56.3296C90.1454 56.3296 90.4082 56.2137 90.6131 55.9821C90.818 55.7505 90.9205 55.4431 90.9205 55.06V51.4251H93.2992V58H90.9739V57.1848C90.5463 57.8263 89.9271 58.147 89.1164 58.147ZM98.2649 58.147C97.4631 58.147 96.7682 58.0089 96.1802 57.7327C95.6011 57.4476 95.1556 57.0467 94.8438 56.53C94.532 56.0133 94.3761 55.403 94.3761 54.6992C94.3761 54.031 94.5231 53.4386 94.8171 52.9219C95.12 52.4051 95.5298 52.0042 96.0465 51.7191C96.5722 51.4251 97.1691 51.2781 97.8373 51.2781C98.4965 51.2781 99.0667 51.4162 99.5478 51.6924C100.038 51.9686 100.412 52.365 100.67 52.8818C100.938 53.3896 101.071 53.9865 101.071 54.6725V55.1937H96.6479C96.7281 55.6213 96.9063 55.9287 97.1824 56.1157C97.4586 56.3028 97.8417 56.3964 98.3317 56.3964C98.6702 56.3964 99.0222 56.3474 99.3874 56.2494C99.7616 56.1425 100.091 55.991 100.376 55.795L100.964 57.3585C100.626 57.5991 100.212 57.7906 99.7215 57.9332C99.2315 58.0757 98.746 58.147 98.2649 58.147ZM97.9442 52.8149C97.5878 52.8149 97.2938 52.9219 97.0622 53.1357C96.8394 53.3495 96.6969 53.6613 96.6345 54.0711H99.1202C99.0934 53.6524 98.9776 53.3406 98.7727 53.1357C98.5767 52.9219 98.3005 52.8149 97.9442 52.8149Z" fill="#858585"/>
</svg>
