<svg width="93" height="18" viewBox="0 0 93 18" fill="none" xmlns="http://www.w3.org/2000/svg">
<g filter="url(#filter0_d_1186_2)">
<path d="M7.52859 2.59126V3.44354H4.00018V2.59126H7.52859ZM5.057 9.13672V1.68786C5.057 1.31285 5.14506 1.00035 5.3212 0.750355C5.49734 0.500355 5.72603 0.312855 6.00728 0.187855C6.28853 0.0628545 6.5854 0.000354528 6.8979 0.000354528C7.14506 0.000354528 7.34677 0.020241 7.50302 0.060014C7.65927 0.0997865 7.77575 0.136718 7.85245 0.170809L7.56268 1.04013C7.51154 1.02308 7.44052 1.00178 7.34961 0.976207C7.26154 0.950639 7.14506 0.937855 7.00018 0.937855C6.66779 0.937855 6.42773 1.02166 6.28001 1.18928C6.13512 1.35689 6.06268 1.60263 6.06268 1.92649V9.13672H5.057ZM8.93803 9.13672V2.59126H9.94371V9.13672H8.93803ZM9.4494 1.50036C9.25337 1.50036 9.08434 1.43359 8.94229 1.30007C8.80309 1.16655 8.73349 1.00604 8.73349 0.818537C8.73349 0.631037 8.80309 0.470526 8.94229 0.337003C9.08434 0.20348 9.25337 0.136719 9.4494 0.136719C9.64542 0.136719 9.81303 0.20348 9.95224 0.337003C10.0943 0.470526 10.1653 0.631037 10.1653 0.818537C10.1653 1.00604 10.0943 1.16655 9.95224 1.30007C9.81303 1.43359 9.64542 1.50036 9.4494 1.50036ZM17.138 2.59126L14.7175 9.13672H13.6948L11.2743 2.59126H12.3652L14.1721 7.80717H14.2402L16.0471 2.59126H17.138ZM20.9753 9.27308C20.3446 9.27308 19.8006 9.13388 19.3432 8.85547C18.8887 8.57422 18.5378 8.18217 18.2907 7.67933C18.0463 7.17365 17.9242 6.58558 17.9242 5.91513C17.9242 5.24467 18.0463 4.65376 18.2907 4.1424C18.5378 3.6282 18.8816 3.22763 19.3219 2.9407C19.7651 2.65092 20.2821 2.50604 20.873 2.50604C21.214 2.50604 21.5506 2.56286 21.883 2.67649C22.2154 2.79013 22.5179 2.97479 22.7907 3.23047C23.0634 3.48331 23.2807 3.81854 23.4426 4.23615C23.6046 4.65376 23.6855 5.16797 23.6855 5.77876V6.2049H18.6401V5.33558H22.6628C22.6628 4.96626 22.589 4.63672 22.4412 4.34695C22.2963 4.05717 22.089 3.82848 21.8191 3.66087C21.552 3.49325 21.2367 3.40945 20.873 3.40945C20.4725 3.40945 20.1259 3.50888 19.8333 3.70774C19.5435 3.90376 19.3205 4.15945 19.1642 4.47479C19.008 4.79013 18.9299 5.1282 18.9299 5.48899V6.06854C18.9299 6.56286 19.0151 6.98189 19.1855 7.32564C19.3588 7.66655 19.5989 7.92649 19.9057 8.10547C20.2125 8.28161 20.5691 8.36967 20.9753 8.36967C21.2395 8.36967 21.4782 8.33274 21.6912 8.25888C21.9071 8.18217 22.0932 8.06854 22.2495 7.91797C22.4057 7.76456 22.5265 7.57422 22.6117 7.34695L23.5833 7.61967C23.481 7.94922 23.3091 8.23899 23.0676 8.48899C22.8262 8.73615 22.5279 8.92933 22.1728 9.06854C21.8176 9.2049 21.4185 9.27308 20.9753 9.27308ZM29.8517 4.05717L28.9483 4.31285C28.8915 4.16229 28.8077 4.01598 28.6969 3.87393C28.589 3.72905 28.4412 3.60973 28.2537 3.51598C28.0662 3.42223 27.8262 3.37535 27.5336 3.37535C27.133 3.37535 26.7992 3.46768 26.5321 3.65234C26.2679 3.83416 26.1358 4.0657 26.1358 4.34695C26.1358 4.59695 26.2267 4.79439 26.4086 4.93928C26.5904 5.08416 26.8745 5.2049 27.2608 5.30149L28.2324 5.54013C28.8176 5.68217 29.2537 5.8995 29.5407 6.19212C29.8276 6.48189 29.9711 6.85547 29.9711 7.31286C29.9711 7.68786 29.8631 8.02308 29.6472 8.31854C29.4341 8.61399 29.1358 8.84695 28.7523 9.0174C28.3688 9.18786 27.9228 9.27308 27.4142 9.27308C26.7466 9.27308 26.1941 9.1282 25.7566 8.83842C25.3191 8.54865 25.0421 8.12536 24.9256 7.56854L25.8801 7.3299C25.9711 7.68217 26.1429 7.94638 26.3958 8.12251C26.6515 8.29865 26.9853 8.38672 27.3972 8.38672C27.8659 8.38672 28.2381 8.28729 28.5137 8.08842C28.7921 7.88672 28.9313 7.64524 28.9313 7.36399C28.9313 7.13672 28.8517 6.94638 28.6926 6.79297C28.5336 6.63672 28.2892 6.52024 27.9597 6.44354L26.8688 6.18786C26.2694 6.04581 25.829 5.82564 25.5478 5.52734C25.2694 5.22621 25.1301 4.84979 25.1301 4.39808C25.1301 4.02876 25.2338 3.70206 25.4412 3.41797C25.6515 3.13388 25.937 2.91087 26.2978 2.74893C26.6614 2.587 27.0733 2.50604 27.5336 2.50604C28.1813 2.50604 28.6898 2.64808 29.0591 2.93217C29.4313 3.21626 29.6955 3.59126 29.8517 4.05717ZM34.144 9.27308C33.5304 9.27308 33.002 9.1282 32.5588 8.83842C32.1156 8.54865 31.7747 8.1495 31.536 7.64098C31.2974 7.13246 31.1781 6.55149 31.1781 5.89808C31.1781 5.23331 31.3002 4.64666 31.5446 4.13814C31.7917 3.62678 32.1355 3.22763 32.5758 2.9407C33.019 2.65092 33.536 2.50604 34.127 2.50604C34.5872 2.50604 35.002 2.59126 35.3713 2.76172C35.7406 2.93217 36.0431 3.17081 36.2789 3.47763C36.5147 3.78445 36.661 4.1424 36.7179 4.55149H35.7122C35.6355 4.2532 35.465 3.98899 35.2008 3.75888C34.9395 3.52592 34.5872 3.40945 34.144 3.40945C33.752 3.40945 33.4082 3.51172 33.1127 3.71626C32.8201 3.91797 32.5914 4.20348 32.4267 4.5728C32.2647 4.93928 32.1838 5.36967 32.1838 5.86399C32.1838 6.36967 32.2633 6.81001 32.4224 7.18501C32.5843 7.56001 32.8116 7.85121 33.1042 8.05859C33.3997 8.26598 33.7463 8.36967 34.144 8.36967C34.4054 8.36967 34.6426 8.32422 34.8556 8.23331C35.0687 8.1424 35.2491 8.01172 35.3968 7.84126C35.5446 7.67081 35.6497 7.46626 35.7122 7.22763H36.7179C36.661 7.61399 36.5204 7.962 36.296 8.27166C36.0744 8.57848 35.7804 8.8228 35.4139 9.00462C35.0502 9.18359 34.627 9.27308 34.144 9.27308ZM40.8471 9.27308C40.2562 9.27308 39.7377 9.13246 39.2917 8.85121C38.8485 8.56996 38.502 8.17649 38.252 7.67081C38.0048 7.16513 37.8812 6.57422 37.8812 5.89808C37.8812 5.21626 38.0048 4.62109 38.252 4.11257C38.502 3.60405 38.8485 3.20916 39.2917 2.92791C39.7377 2.64666 40.2562 2.50604 40.8471 2.50604C41.438 2.50604 41.9551 2.64666 42.3983 2.92791C42.8443 3.20916 43.1909 3.60405 43.438 4.11257C43.688 4.62109 43.813 5.21626 43.813 5.89808C43.813 6.57422 43.688 7.16513 43.438 7.67081C43.1909 8.17649 42.8443 8.56996 42.3983 8.85121C41.9551 9.13246 41.438 9.27308 40.8471 9.27308ZM40.8471 8.36967C41.296 8.36967 41.6653 8.25462 41.9551 8.0245C42.2449 7.79439 42.4593 7.49183 42.5985 7.11683C42.7377 6.74183 42.8074 6.33558 42.8074 5.89808C42.8074 5.46058 42.7377 5.05291 42.5985 4.67507C42.4593 4.29723 42.2449 3.99183 41.9551 3.75888C41.6653 3.52592 41.296 3.40945 40.8471 3.40945C40.3983 3.40945 40.0289 3.52592 39.7392 3.75888C39.4494 3.99183 39.2349 4.29723 39.0957 4.67507C38.9565 5.05291 38.8869 5.46058 38.8869 5.89808C38.8869 6.33558 38.9565 6.74183 39.0957 7.11683C39.2349 7.49183 39.4494 7.79439 39.7392 8.0245C40.0289 8.25462 40.3983 8.36967 40.8471 8.36967ZM45.3482 9.13672V2.59126H46.3198V3.5799H46.388C46.5073 3.25604 46.7232 2.99325 47.0357 2.79155C47.3482 2.58984 47.7005 2.48899 48.0925 2.48899C48.1664 2.48899 48.2587 2.49041 48.3695 2.49325C48.4803 2.49609 48.5641 2.50036 48.6209 2.50604V3.52876C48.5868 3.52024 48.5087 3.50746 48.3865 3.49041C48.2672 3.47053 48.1408 3.46058 48.0073 3.46058C47.6891 3.46058 47.405 3.52734 47.155 3.66087C46.9078 3.79155 46.7118 3.97337 46.5669 4.20632C46.4249 4.43643 46.3539 4.69922 46.3539 4.99467V9.13672H45.3482ZM52.3581 9.27308C51.7275 9.27308 51.1834 9.13388 50.726 8.85547C50.2715 8.57422 49.9206 8.18217 49.6735 7.67933C49.4292 7.17365 49.307 6.58558 49.307 5.91513C49.307 5.24467 49.4292 4.65376 49.6735 4.1424C49.9206 3.6282 50.2644 3.22763 50.7047 2.9407C51.1479 2.65092 51.665 2.50604 52.2559 2.50604C52.5968 2.50604 52.9334 2.56286 53.2658 2.67649C53.5982 2.79013 53.9007 2.97479 54.1735 3.23047C54.4462 3.48331 54.6635 3.81854 54.8255 4.23615C54.9874 4.65376 55.0684 5.16797 55.0684 5.77876V6.2049H50.0229V5.33558H54.0456C54.0456 4.96626 53.9718 4.63672 53.824 4.34695C53.6792 4.05717 53.4718 3.82848 53.2019 3.66087C52.9348 3.49325 52.6195 3.40945 52.2559 3.40945C51.8553 3.40945 51.5087 3.50888 51.2161 3.70774C50.9263 3.90376 50.7033 4.15945 50.5471 4.47479C50.3908 4.79013 50.3127 5.1282 50.3127 5.48899V6.06854C50.3127 6.56286 50.3979 6.98189 50.5684 7.32564C50.7417 7.66655 50.9817 7.92649 51.2885 8.10547C51.5953 8.28161 51.9519 8.36967 52.3581 8.36967C52.6223 8.36967 52.861 8.33274 53.074 8.25888C53.29 8.18217 53.476 8.06854 53.6323 7.91797C53.7885 7.76456 53.9093 7.57422 53.9945 7.34695L54.9661 7.61967C54.8638 7.94922 54.6919 8.23899 54.4505 8.48899C54.209 8.73615 53.9107 8.92933 53.5556 9.06854C53.2005 9.2049 52.8013 9.27308 52.3581 9.27308ZM61.2346 4.05717L60.3311 4.31285C60.2743 4.16229 60.1905 4.01598 60.0797 3.87393C59.9718 3.72905 59.824 3.60973 59.6365 3.51598C59.449 3.42223 59.209 3.37535 58.9164 3.37535C58.5158 3.37535 58.182 3.46768 57.915 3.65234C57.6507 3.83416 57.5186 4.0657 57.5186 4.34695C57.5186 4.59695 57.6096 4.79439 57.7914 4.93928C57.9732 5.08416 58.2573 5.2049 58.6436 5.30149L59.6152 5.54013C60.2005 5.68217 60.6365 5.8995 60.9235 6.19212C61.2104 6.48189 61.3539 6.85547 61.3539 7.31286C61.3539 7.68786 61.2459 8.02308 61.03 8.31854C60.8169 8.61399 60.5186 8.84695 60.1351 9.0174C59.7516 9.18786 59.3056 9.27308 58.7971 9.27308C58.1294 9.27308 57.5769 9.1282 57.1394 8.83842C56.7019 8.54865 56.4249 8.12536 56.3084 7.56854L57.263 7.3299C57.3539 7.68217 57.5257 7.94638 57.7786 8.12251C58.0343 8.29865 58.3681 8.38672 58.78 8.38672C59.2488 8.38672 59.6209 8.28729 59.8965 8.08842C60.1749 7.88672 60.3141 7.64524 60.3141 7.36399C60.3141 7.13672 60.2346 6.94638 60.0755 6.79297C59.9164 6.63672 59.6721 6.52024 59.3425 6.44354L58.2516 6.18786C57.6522 6.04581 57.2118 5.82564 56.9306 5.52734C56.6522 5.22621 56.513 4.84979 56.513 4.39808C56.513 4.02876 56.6167 3.70206 56.824 3.41797C57.0343 3.13388 57.3198 2.91087 57.6806 2.74893C58.0442 2.587 58.4561 2.50604 58.9164 2.50604C59.5641 2.50604 60.0726 2.64808 60.4419 2.93217C60.8141 3.21626 61.0783 3.59126 61.2346 4.05717ZM63.6007 9.2049C63.3904 9.2049 63.21 9.12962 63.0595 8.97905C62.9089 8.82848 62.8336 8.64808 62.8336 8.43786C62.8336 8.22763 62.9089 8.04723 63.0595 7.89666C63.21 7.74609 63.3904 7.67081 63.6007 7.67081C63.8109 7.67081 63.9913 7.74609 64.1419 7.89666C64.2924 8.04723 64.3677 8.22763 64.3677 8.43786C64.3677 8.57706 64.3322 8.7049 64.2612 8.82138C64.193 8.93786 64.1007 9.03161 63.9842 9.10263C63.8706 9.17081 63.7427 9.2049 63.6007 9.2049ZM68.8315 9.27308C68.2179 9.27308 67.6895 9.1282 67.2463 8.83842C66.8031 8.54865 66.4622 8.1495 66.2235 7.64098C65.9849 7.13246 65.8656 6.55149 65.8656 5.89808C65.8656 5.23331 65.9877 4.64666 66.2321 4.13814C66.4792 3.62678 66.823 3.22763 67.2633 2.9407C67.7065 2.65092 68.2235 2.50604 68.8145 2.50604C69.2747 2.50604 69.6895 2.59126 70.0588 2.76172C70.4281 2.93217 70.7306 3.17081 70.9664 3.47763C71.2022 3.78445 71.3485 4.1424 71.4054 4.55149H70.3997C70.323 4.2532 70.1525 3.98899 69.8883 3.75888C69.627 3.52592 69.2747 3.40945 68.8315 3.40945C68.4395 3.40945 68.0957 3.51172 67.8002 3.71626C67.5076 3.91797 67.2789 4.20348 67.1142 4.5728C66.9522 4.93928 66.8713 5.36967 66.8713 5.86399C66.8713 6.36967 66.9508 6.81001 67.1099 7.18501C67.2718 7.56001 67.4991 7.85121 67.7917 8.05859C68.0872 8.26598 68.4338 8.36967 68.8315 8.36967C69.0929 8.36967 69.3301 8.32422 69.5431 8.23331C69.7562 8.1424 69.9366 8.01172 70.0843 7.84126C70.2321 7.67081 70.3372 7.46626 70.3997 7.22763H71.4054C71.3485 7.61399 71.2079 7.962 70.9835 8.27166C70.7619 8.57848 70.4679 8.8228 70.1014 9.00462C69.7377 9.18359 69.3145 9.27308 68.8315 9.27308ZM75.5346 9.27308C74.9437 9.27308 74.4252 9.13246 73.9792 8.85121C73.536 8.56996 73.1895 8.17649 72.9395 7.67081C72.6923 7.16513 72.5687 6.57422 72.5687 5.89808C72.5687 5.21626 72.6923 4.62109 72.9395 4.11257C73.1895 3.60405 73.536 3.20916 73.9792 2.92791C74.4252 2.64666 74.9437 2.50604 75.5346 2.50604C76.1255 2.50604 76.6426 2.64666 77.0858 2.92791C77.5318 3.20916 77.8784 3.60405 78.1255 4.11257C78.3755 4.62109 78.5005 5.21626 78.5005 5.89808C78.5005 6.57422 78.3755 7.16513 78.1255 7.67081C77.8784 8.17649 77.5318 8.56996 77.0858 8.85121C76.6426 9.13246 76.1255 9.27308 75.5346 9.27308ZM75.5346 8.36967C75.9835 8.36967 76.3528 8.25462 76.6426 8.0245C76.9324 7.79439 77.1468 7.49183 77.286 7.11683C77.4252 6.74183 77.4949 6.33558 77.4949 5.89808C77.4949 5.46058 77.4252 5.05291 77.286 4.67507C77.1468 4.29723 76.9324 3.99183 76.6426 3.75888C76.3528 3.52592 75.9835 3.40945 75.5346 3.40945C75.0858 3.40945 74.7164 3.52592 74.4267 3.75888C74.1369 3.99183 73.9224 4.29723 73.7832 4.67507C73.644 5.05291 73.5744 5.46058 73.5744 5.89808C73.5744 6.33558 73.644 6.74183 73.7832 7.11683C73.9224 7.49183 74.1369 7.79439 74.4267 8.0245C74.7164 8.25462 75.0858 8.36967 75.5346 8.36967ZM80.0357 9.13672V2.59126H81.0073V3.61399H81.0925C81.2289 3.26456 81.449 2.99325 81.753 2.80007C82.057 2.60405 82.4221 2.50604 82.8482 2.50604C83.28 2.50604 83.6394 2.60405 83.9263 2.80007C84.2161 2.99325 84.4419 3.26456 84.6039 3.61399H84.6721C84.8397 3.27592 85.0911 3.00746 85.4263 2.80859C85.7615 2.60689 86.1635 2.50604 86.6323 2.50604C87.2175 2.50604 87.6962 2.68928 88.0684 3.05575C88.4405 3.41939 88.6266 3.98615 88.6266 4.75604V9.13672H87.6209V4.75604C87.6209 4.27308 87.4888 3.92791 87.2246 3.72053C86.9604 3.51314 86.6493 3.40945 86.2914 3.40945C85.8311 3.40945 85.4746 3.54865 85.2218 3.82706C84.9689 4.10263 84.8425 4.45206 84.8425 4.87535V9.13672H83.8198V4.65376C83.8198 4.28161 83.699 3.98189 83.4576 3.75462C83.2161 3.5245 82.905 3.40945 82.5243 3.40945C82.263 3.40945 82.0186 3.47905 81.7914 3.61825C81.5669 3.75746 81.3851 3.95064 81.2459 4.1978C81.1096 4.44212 81.0414 4.72479 81.0414 5.04581V9.13672H80.0357Z" fill="white"/>
</g>
<defs>
<filter id="filter0_d_1186_2" x="0" y="0" width="92.627" height="17.2734" filterUnits="userSpaceOnUse" color-interpolation-filters="sRGB">
<feFlood flood-opacity="0" result="BackgroundImageFix"/>
<feColorMatrix in="SourceAlpha" type="matrix" values="0 0 0 0 0 0 0 0 0 0 0 0 0 0 0 0 0 0 127 0" result="hardAlpha"/>
<feOffset dy="4"/>
<feGaussianBlur stdDeviation="2"/>
<feComposite in2="hardAlpha" operator="out"/>
<feColorMatrix type="matrix" values="0 0 0 0 0 0 0 0 0 0 0 0 0 0 0 0 0 0 0.25 0"/>
<feBlend mode="normal" in2="BackgroundImageFix" result="effect1_dropShadow_1186_2"/>
<feBlend mode="normal" in="SourceGraphic" in2="effect1_dropShadow_1186_2" result="shape"/>
</filter>
</defs>
</svg>
