<svg width="87" height="18" viewBox="0 0 87 18" fill="none" xmlns="http://www.w3.org/2000/svg">
<g filter="url(#filter0_d_1186_2)">
<path d="M7.52859 2.59126V3.44354H4.00018V2.59126H7.52859ZM5.057 9.13672V1.68786C5.057 1.31285 5.14506 1.00035 5.3212 0.750355C5.49734 0.500355 5.72603 0.312855 6.00728 0.187855C6.28853 0.0628545 6.5854 0.000354528 6.8979 0.000354528C7.14506 0.000354528 7.34677 0.020241 7.50302 0.060014C7.65927 0.0997865 7.77575 0.136718 7.85245 0.170809L7.56268 1.04013C7.51154 1.02308 7.44052 1.00178 7.34961 0.976207C7.26154 0.950639 7.14506 0.937855 7.00018 0.937855C6.66779 0.937855 6.42773 1.02166 6.28001 1.18928C6.13512 1.35689 6.06268 1.60263 6.06268 1.92649V9.13672H5.057ZM8.93803 9.13672V2.59126H9.94371V9.13672H8.93803ZM9.4494 1.50036C9.25337 1.50036 9.08434 1.43359 8.94229 1.30007C8.80309 1.16655 8.73349 1.00604 8.73349 0.818537C8.73349 0.631037 8.80309 0.470526 8.94229 0.337003C9.08434 0.20348 9.25337 0.136719 9.4494 0.136719C9.64542 0.136719 9.81303 0.20348 9.95224 0.337003C10.0943 0.470526 10.1653 0.631037 10.1653 0.818537C10.1653 1.00604 10.0943 1.16655 9.95224 1.30007C9.81303 1.43359 9.64542 1.50036 9.4494 1.50036ZM17.138 2.59126L14.7175 9.13672H13.6948L11.2743 2.59126H12.3652L14.1721 7.80717H14.2402L16.0471 2.59126H17.138ZM20.9753 9.27308C20.3446 9.27308 19.8006 9.13388 19.3432 8.85547C18.8887 8.57422 18.5378 8.18217 18.2907 7.67933C18.0463 7.17365 17.9242 6.58558 17.9242 5.91513C17.9242 5.24467 18.0463 4.65376 18.2907 4.1424C18.5378 3.6282 18.8816 3.22763 19.3219 2.9407C19.7651 2.65092 20.2821 2.50604 20.873 2.50604C21.214 2.50604 21.5506 2.56286 21.883 2.67649C22.2154 2.79013 22.5179 2.97479 22.7907 3.23047C23.0634 3.48331 23.2807 3.81854 23.4426 4.23615C23.6046 4.65376 23.6855 5.16797 23.6855 5.77876V6.2049H18.6401V5.33558H22.6628C22.6628 4.96626 22.589 4.63672 22.4412 4.34695C22.2963 4.05717 22.089 3.82848 21.8191 3.66087C21.552 3.49325 21.2367 3.40945 20.873 3.40945C20.4725 3.40945 20.1259 3.50888 19.8333 3.70774C19.5435 3.90376 19.3205 4.15945 19.1642 4.47479C19.008 4.79013 18.9299 5.1282 18.9299 5.48899V6.06854C18.9299 6.56286 19.0151 6.98189 19.1855 7.32564C19.3588 7.66655 19.5989 7.92649 19.9057 8.10547C20.2125 8.28161 20.5691 8.36967 20.9753 8.36967C21.2395 8.36967 21.4782 8.33274 21.6912 8.25888C21.9071 8.18217 22.0932 8.06854 22.2495 7.91797C22.4057 7.76456 22.5265 7.57422 22.6117 7.34695L23.5833 7.61967C23.481 7.94922 23.3091 8.23899 23.0676 8.48899C22.8262 8.73615 22.5279 8.92933 22.1728 9.06854C21.8176 9.2049 21.4185 9.27308 20.9753 9.27308ZM29.8517 4.05717L28.9483 4.31285C28.8915 4.16229 28.8077 4.01598 28.6969 3.87393C28.589 3.72905 28.4412 3.60973 28.2537 3.51598C28.0662 3.42223 27.8262 3.37535 27.5336 3.37535C27.133 3.37535 26.7992 3.46768 26.5321 3.65234C26.2679 3.83416 26.1358 4.0657 26.1358 4.34695C26.1358 4.59695 26.2267 4.79439 26.4086 4.93928C26.5904 5.08416 26.8745 5.2049 27.2608 5.30149L28.2324 5.54013C28.8176 5.68217 29.2537 5.8995 29.5407 6.19212C29.8276 6.48189 29.9711 6.85547 29.9711 7.31286C29.9711 7.68786 29.8631 8.02308 29.6472 8.31854C29.4341 8.61399 29.1358 8.84695 28.7523 9.0174C28.3688 9.18786 27.9228 9.27308 27.4142 9.27308C26.7466 9.27308 26.1941 9.1282 25.7566 8.83842C25.3191 8.54865 25.0421 8.12536 24.9256 7.56854L25.8801 7.3299C25.9711 7.68217 26.1429 7.94638 26.3958 8.12251C26.6515 8.29865 26.9853 8.38672 27.3972 8.38672C27.8659 8.38672 28.2381 8.28729 28.5137 8.08842C28.7921 7.88672 28.9313 7.64524 28.9313 7.36399C28.9313 7.13672 28.8517 6.94638 28.6926 6.79297C28.5336 6.63672 28.2892 6.52024 27.9597 6.44354L26.8688 6.18786C26.2694 6.04581 25.829 5.82564 25.5478 5.52734C25.2694 5.22621 25.1301 4.84979 25.1301 4.39808C25.1301 4.02876 25.2338 3.70206 25.4412 3.41797C25.6515 3.13388 25.937 2.91087 26.2978 2.74893C26.6614 2.587 27.0733 2.50604 27.5336 2.50604C28.1813 2.50604 28.6898 2.64808 29.0591 2.93217C29.4313 3.21626 29.6955 3.59126 29.8517 4.05717ZM34.144 9.27308C33.5304 9.27308 33.002 9.1282 32.5588 8.83842C32.1156 8.54865 31.7747 8.1495 31.536 7.64098C31.2974 7.13246 31.1781 6.55149 31.1781 5.89808C31.1781 5.23331 31.3002 4.64666 31.5446 4.13814C31.7917 3.62678 32.1355 3.22763 32.5758 2.9407C33.019 2.65092 33.536 2.50604 34.127 2.50604C34.5872 2.50604 35.002 2.59126 35.3713 2.76172C35.7406 2.93217 36.0431 3.17081 36.2789 3.47763C36.5147 3.78445 36.661 4.1424 36.7179 4.55149H35.7122C35.6355 4.2532 35.465 3.98899 35.2008 3.75888C34.9395 3.52592 34.5872 3.40945 34.144 3.40945C33.752 3.40945 33.4082 3.51172 33.1127 3.71626C32.8201 3.91797 32.5914 4.20348 32.4267 4.5728C32.2647 4.93928 32.1838 5.36967 32.1838 5.86399C32.1838 6.36967 32.2633 6.81001 32.4224 7.18501C32.5843 7.56001 32.8116 7.85121 33.1042 8.05859C33.3997 8.26598 33.7463 8.36967 34.144 8.36967C34.4054 8.36967 34.6426 8.32422 34.8556 8.23331C35.0687 8.1424 35.2491 8.01172 35.3968 7.84126C35.5446 7.67081 35.6497 7.46626 35.7122 7.22763H36.7179C36.661 7.61399 36.5204 7.962 36.296 8.27166C36.0744 8.57848 35.7804 8.8228 35.4139 9.00462C35.0502 9.18359 34.627 9.27308 34.144 9.27308ZM40.8471 9.27308C40.2562 9.27308 39.7377 9.13246 39.2917 8.85121C38.8485 8.56996 38.502 8.17649 38.252 7.67081C38.0048 7.16513 37.8812 6.57422 37.8812 5.89808C37.8812 5.21626 38.0048 4.62109 38.252 4.11257C38.502 3.60405 38.8485 3.20916 39.2917 2.92791C39.7377 2.64666 40.2562 2.50604 40.8471 2.50604C41.438 2.50604 41.9551 2.64666 42.3983 2.92791C42.8443 3.20916 43.1909 3.60405 43.438 4.11257C43.688 4.62109 43.813 5.21626 43.813 5.89808C43.813 6.57422 43.688 7.16513 43.438 7.67081C43.1909 8.17649 42.8443 8.56996 42.3983 8.85121C41.9551 9.13246 41.438 9.27308 40.8471 9.27308ZM40.8471 8.36967C41.296 8.36967 41.6653 8.25462 41.9551 8.0245C42.2449 7.79439 42.4593 7.49183 42.5985 7.11683C42.7377 6.74183 42.8074 6.33558 42.8074 5.89808C42.8074 5.46058 42.7377 5.05291 42.5985 4.67507C42.4593 4.29723 42.2449 3.99183 41.9551 3.75888C41.6653 3.52592 41.296 3.40945 40.8471 3.40945C40.3983 3.40945 40.0289 3.52592 39.7392 3.75888C39.4494 3.99183 39.2349 4.29723 39.0957 4.67507C38.9565 5.05291 38.8869 5.46058 38.8869 5.89808C38.8869 6.33558 38.9565 6.74183 39.0957 7.11683C39.2349 7.49183 39.4494 7.79439 39.7392 8.0245C40.0289 8.25462 40.3983 8.36967 40.8471 8.36967ZM45.3482 9.13672V2.59126H46.3198V3.5799H46.388C46.5073 3.25604 46.7232 2.99325 47.0357 2.79155C47.3482 2.58984 47.7005 2.48899 48.0925 2.48899C48.1664 2.48899 48.2587 2.49041 48.3695 2.49325C48.4803 2.49609 48.5641 2.50036 48.6209 2.50604V3.52876C48.5868 3.52024 48.5087 3.50746 48.3865 3.49041C48.2672 3.47053 48.1408 3.46058 48.0073 3.46058C47.6891 3.46058 47.405 3.52734 47.155 3.66087C46.9078 3.79155 46.7118 3.97337 46.5669 4.20632C46.4249 4.43643 46.3539 4.69922 46.3539 4.99467V9.13672H45.3482ZM52.3581 9.27308C51.7275 9.27308 51.1834 9.13388 50.726 8.85547C50.2715 8.57422 49.9206 8.18217 49.6735 7.67933C49.4292 7.17365 49.307 6.58558 49.307 5.91513C49.307 5.24467 49.4292 4.65376 49.6735 4.1424C49.9206 3.6282 50.2644 3.22763 50.7047 2.9407C51.1479 2.65092 51.665 2.50604 52.2559 2.50604C52.5968 2.50604 52.9334 2.56286 53.2658 2.67649C53.5982 2.79013 53.9007 2.97479 54.1735 3.23047C54.4462 3.48331 54.6635 3.81854 54.8255 4.23615C54.9874 4.65376 55.0684 5.16797 55.0684 5.77876V6.2049H50.0229V5.33558H54.0456C54.0456 4.96626 53.9718 4.63672 53.824 4.34695C53.6792 4.05717 53.4718 3.82848 53.2019 3.66087C52.9348 3.49325 52.6195 3.40945 52.2559 3.40945C51.8553 3.40945 51.5087 3.50888 51.2161 3.70774C50.9263 3.90376 50.7033 4.15945 50.5471 4.47479C50.3908 4.79013 50.3127 5.1282 50.3127 5.48899V6.06854C50.3127 6.56286 50.3979 6.98189 50.5684 7.32564C50.7417 7.66655 50.9817 7.92649 51.2885 8.10547C51.5953 8.28161 51.9519 8.36967 52.3581 8.36967C52.6223 8.36967 52.861 8.33274 53.074 8.25888C53.29 8.18217 53.476 8.06854 53.6323 7.91797C53.7885 7.76456 53.9093 7.57422 53.9945 7.34695L54.9661 7.61967C54.8638 7.94922 54.6919 8.23899 54.4505 8.48899C54.209 8.73615 53.9107 8.92933 53.5556 9.06854C53.2005 9.2049 52.8013 9.27308 52.3581 9.27308ZM57.3311 9.2049C57.1209 9.2049 56.9405 9.12962 56.79 8.97905C56.6394 8.82848 56.5641 8.64808 56.5641 8.43786C56.5641 8.22763 56.6394 8.04723 56.79 7.89666C56.9405 7.74609 57.1209 7.67081 57.3311 7.67081C57.5414 7.67081 57.7218 7.74609 57.8723 7.89666C58.0229 8.04723 58.0982 8.22763 58.0982 8.43786C58.0982 8.57706 58.0627 8.7049 57.9917 8.82138C57.9235 8.93786 57.8311 9.03161 57.7147 9.10263C57.601 9.17081 57.4732 9.2049 57.3311 9.2049ZM62.562 9.27308C61.9483 9.27308 61.4199 9.1282 60.9767 8.83842C60.5336 8.54865 60.1926 8.1495 59.954 7.64098C59.7154 7.13246 59.5961 6.55149 59.5961 5.89808C59.5961 5.23331 59.7182 4.64666 59.9625 4.13814C60.2097 3.62678 60.5534 3.22763 60.9938 2.9407C61.437 2.65092 61.954 2.50604 62.5449 2.50604C63.0051 2.50604 63.4199 2.59126 63.7892 2.76172C64.1586 2.93217 64.4611 3.17081 64.6969 3.47763C64.9327 3.78445 65.079 4.1424 65.1358 4.55149H64.1301C64.0534 4.2532 63.883 3.98899 63.6188 3.75888C63.3574 3.52592 63.0051 3.40945 62.562 3.40945C62.1699 3.40945 61.8262 3.51172 61.5307 3.71626C61.2381 3.91797 61.0094 4.20348 60.8446 4.5728C60.6827 4.93928 60.6017 5.36967 60.6017 5.86399C60.6017 6.36967 60.6813 6.81001 60.8404 7.18501C61.0023 7.56001 61.2296 7.85121 61.5222 8.05859C61.8176 8.26598 62.1642 8.36967 62.562 8.36967C62.8233 8.36967 63.0605 8.32422 63.2736 8.23331C63.4867 8.1424 63.6671 8.01172 63.8148 7.84126C63.9625 7.67081 64.0676 7.46626 64.1301 7.22763H65.1358C65.079 7.61399 64.9384 7.962 64.714 8.27166C64.4924 8.57848 64.1983 8.8228 63.8319 9.00462C63.4682 9.18359 63.0449 9.27308 62.562 9.27308ZM69.2651 9.27308C68.6742 9.27308 68.1557 9.13246 67.7097 8.85121C67.2665 8.56996 66.9199 8.17649 66.6699 7.67081C66.4228 7.16513 66.2992 6.57422 66.2992 5.89808C66.2992 5.21626 66.4228 4.62109 66.6699 4.11257C66.9199 3.60405 67.2665 3.20916 67.7097 2.92791C68.1557 2.64666 68.6742 2.50604 69.2651 2.50604C69.856 2.50604 70.373 2.64666 70.8162 2.92791C71.2623 3.20916 71.6088 3.60405 71.856 4.11257C72.106 4.62109 72.231 5.21626 72.231 5.89808C72.231 6.57422 72.106 7.16513 71.856 7.67081C71.6088 8.17649 71.2623 8.56996 70.8162 8.85121C70.373 9.13246 69.856 9.27308 69.2651 9.27308ZM69.2651 8.36967C69.714 8.36967 70.0833 8.25462 70.373 8.0245C70.6628 7.79439 70.8773 7.49183 71.0165 7.11683C71.1557 6.74183 71.2253 6.33558 71.2253 5.89808C71.2253 5.46058 71.1557 5.05291 71.0165 4.67507C70.8773 4.29723 70.6628 3.99183 70.373 3.75888C70.0833 3.52592 69.714 3.40945 69.2651 3.40945C68.8162 3.40945 68.4469 3.52592 68.1571 3.75888C67.8674 3.99183 67.6529 4.29723 67.5137 4.67507C67.3745 5.05291 67.3049 5.46058 67.3049 5.89808C67.3049 6.33558 67.3745 6.74183 67.5137 7.11683C67.6529 7.49183 67.8674 7.79439 68.1571 8.0245C68.4469 8.25462 68.8162 8.36967 69.2651 8.36967ZM73.7662 9.13672V2.59126H74.7377V3.61399H74.823C74.9593 3.26456 75.1795 2.99325 75.4835 2.80007C75.7875 2.60405 76.1525 2.50604 76.5787 2.50604C77.0105 2.50604 77.3699 2.60405 77.6568 2.80007C77.9466 2.99325 78.1724 3.26456 78.3343 3.61399H78.4025C78.5701 3.27592 78.8216 3.00746 79.1568 2.80859C79.492 2.60689 79.894 2.50604 80.3627 2.50604C80.948 2.50604 81.4267 2.68928 81.7988 3.05575C82.171 3.41939 82.3571 3.98615 82.3571 4.75604V9.13672H81.3514V4.75604C81.3514 4.27308 81.2193 3.92791 80.9551 3.72053C80.6909 3.51314 80.3798 3.40945 80.0218 3.40945C79.5616 3.40945 79.2051 3.54865 78.9522 3.82706C78.6994 4.10263 78.573 4.45206 78.573 4.87535V9.13672H77.5502V4.65376C77.5502 4.28161 77.4295 3.98189 77.188 3.75462C76.9466 3.5245 76.6355 3.40945 76.2548 3.40945C75.9934 3.40945 75.7491 3.47905 75.5218 3.61825C75.2974 3.75746 75.1156 3.95064 74.9764 4.1978C74.84 4.44212 74.7718 4.72479 74.7718 5.04581V9.13672H73.7662Z" fill="white"/>
</g>
<defs>
<filter id="filter0_d_1186_2" x="0" y="0" width="86.3574" height="17.2734" filterUnits="userSpaceOnUse" color-interpolation-filters="sRGB">
<feFlood flood-opacity="0" result="BackgroundImageFix"/>
<feColorMatrix in="SourceAlpha" type="matrix" values="0 0 0 0 0 0 0 0 0 0 0 0 0 0 0 0 0 0 127 0" result="hardAlpha"/>
<feOffset dy="4"/>
<feGaussianBlur stdDeviation="2"/>
<feComposite in2="hardAlpha" operator="out"/>
<feColorMatrix type="matrix" values="0 0 0 0 0 0 0 0 0 0 0 0 0 0 0 0 0 0 0.25 0"/>
<feBlend mode="normal" in2="BackgroundImageFix" result="effect1_dropShadow_1186_2"/>
<feBlend mode="normal" in="SourceGraphic" in2="effect1_dropShadow_1186_2" result="shape"/>
</filter>
</defs>
</svg>
