<svg width="88" height="140" viewBox="0 0 88 140" fill="none" xmlns="http://www.w3.org/2000/svg">
<path d="M11.1655 51.0359C10.442 50.2013 10.5321 48.9381 11.3667 48.2146L24.968 36.4246C25.8027 35.7011 27.0658 35.7912 27.7893 36.6259L86.9182 104.839C87.6417 105.673 87.5516 106.936 86.717 107.66L73.1157 119.45C72.281 120.173 71.0179 120.083 70.2944 119.249L11.1655 51.0359Z" fill="black"/>
<path d="M5 38C5 36.8954 5.89543 36 7 36H25C26.1046 36 27 36.8954 27 38V117C27 118.105 26.1046 119 25 119H7C5.89543 119 5 118.105 5 117V38Z" fill="black"/>
<path d="M0 2C0 0.89543 0.895431 0 2 0H86C87.1046 0 88 0.895431 88 2V27C88 28.1046 87.1046 29 86 29H2C0.895429 29 0 28.1046 0 27V2Z" fill="black"/>
<path d="M6.328 139L4.336 135.58H3.016V139H1.924V130.636H4.624C5.256 130.636 5.788 130.744 6.22 130.96C6.66 131.176 6.988 131.468 7.204 131.836C7.42 132.204 7.528 132.624 7.528 133.096C7.528 133.672 7.36 134.18 7.024 134.62C6.696 135.06 6.2 135.352 5.536 135.496L7.636 139H6.328ZM3.016 134.704H4.624C5.216 134.704 5.66 134.56 5.956 134.272C6.252 133.976 6.4 133.584 6.4 133.096C6.4 132.6 6.252 132.216 5.956 131.944C5.668 131.672 5.224 131.536 4.624 131.536H3.016V134.704Z" fill="black"/>
<path d="M18.0808 130.636L15.3568 135.844V139H14.2648V135.844L11.5288 130.636H12.7408L14.8048 134.872L16.8688 130.636H18.0808Z" fill="black"/>
<path d="M30.7166 130.696V139H29.6246V132.808L26.8646 139H26.0966L23.3246 132.796V139H22.2326V130.696H23.4086L26.4806 137.56L29.5526 130.696H30.7166Z" fill="black"/>
<path d="M36.6605 131.524V134.32H39.7085V135.22H36.6605V138.1H40.0685V139H35.5685V130.624H40.0685V131.524H36.6605Z" fill="black"/>
<path d="M52.0121 138.112H54.9401V139H50.9201V130.636H52.0121V138.112Z" fill="black"/>
<path d="M64.0438 137.14H60.3958L59.7238 139H58.5718L61.5958 130.684H62.8558L65.8678 139H64.7158L64.0438 137.14ZM63.7318 136.252L62.2198 132.028L60.7078 136.252H63.7318Z" fill="black"/>
<path d="M74.3737 134.692C74.6777 134.74 74.9537 134.864 75.2017 135.064C75.4577 135.264 75.6577 135.512 75.8017 135.808C75.9537 136.104 76.0297 136.42 76.0297 136.756C76.0297 137.18 75.9217 137.564 75.7057 137.908C75.4897 138.244 75.1737 138.512 74.7577 138.712C74.3497 138.904 73.8657 139 73.3057 139H70.1857V130.636H73.1857C73.7537 130.636 74.2377 130.732 74.6377 130.924C75.0377 131.108 75.3377 131.36 75.5377 131.68C75.7377 132 75.8377 132.36 75.8377 132.76C75.8377 133.256 75.7017 133.668 75.4297 133.996C75.1657 134.316 74.8137 134.548 74.3737 134.692ZM71.2777 134.248H73.1137C73.6257 134.248 74.0217 134.128 74.3017 133.888C74.5817 133.648 74.7217 133.316 74.7217 132.892C74.7217 132.468 74.5817 132.136 74.3017 131.896C74.0217 131.656 73.6177 131.536 73.0897 131.536H71.2777V134.248ZM73.2097 138.1C73.7537 138.1 74.1777 137.972 74.4817 137.716C74.7857 137.46 74.9377 137.104 74.9377 136.648C74.9377 136.184 74.7777 135.82 74.4577 135.556C74.1377 135.284 73.7097 135.148 73.1737 135.148H71.2777V138.1H73.2097Z" fill="black"/>
<path d="M83.1971 139.084C82.6451 139.084 82.1491 138.988 81.7091 138.796C81.2771 138.596 80.9371 138.324 80.6891 137.98C80.4411 137.628 80.3131 137.224 80.3051 136.768H81.4691C81.5091 137.16 81.6691 137.492 81.9491 137.764C82.2371 138.028 82.6531 138.16 83.1971 138.16C83.7171 138.16 84.1251 138.032 84.4211 137.776C84.7251 137.512 84.8771 137.176 84.8771 136.768C84.8771 136.448 84.7891 136.188 84.6131 135.988C84.4371 135.788 84.2171 135.636 83.9531 135.532C83.6891 135.428 83.3331 135.316 82.8851 135.196C82.3331 135.052 81.8891 134.908 81.5531 134.764C81.2251 134.62 80.9411 134.396 80.7011 134.092C80.4691 133.78 80.3531 133.364 80.3531 132.844C80.3531 132.388 80.4691 131.984 80.7011 131.632C80.9331 131.28 81.2571 131.008 81.6731 130.816C82.0971 130.624 82.5811 130.528 83.1251 130.528C83.9091 130.528 84.5491 130.724 85.0451 131.116C85.5491 131.508 85.8331 132.028 85.8971 132.676H84.6971C84.6571 132.356 84.4891 132.076 84.1931 131.836C83.8971 131.588 83.5051 131.464 83.0171 131.464C82.5611 131.464 82.1891 131.584 81.9011 131.824C81.6131 132.056 81.4691 132.384 81.4691 132.808C81.4691 133.112 81.5531 133.36 81.7211 133.552C81.8971 133.744 82.1091 133.892 82.3571 133.996C82.6131 134.092 82.9691 134.204 83.4251 134.332C83.9771 134.484 84.4211 134.636 84.7571 134.788C85.0931 134.932 85.3811 135.16 85.6211 135.472C85.8611 135.776 85.9811 136.192 85.9811 136.72C85.9811 137.128 85.8731 137.512 85.6571 137.872C85.4411 138.232 85.1211 138.524 84.6971 138.748C84.2731 138.972 83.7731 139.084 83.1971 139.084Z" fill="black"/>
</svg>
