<svg width="18" height="20" viewBox="0 0 18 20" fill="none" xmlns="http://www.w3.org/2000/svg">
<path fill-rule="evenodd" clip-rule="evenodd" d="M7.91983 0.171255C8.47112 -0.0570851 9.09054 -0.0570851 9.64183 0.171255L16.1898 2.88426C16.9658 3.20626 17.5278 3.94826 17.5508 4.83126C17.6678 9.37626 16.2108 15.6383 9.84783 19.3893C9.52501 19.5791 9.15767 19.68 8.78318 19.6818C8.40869 19.6835 8.04041 19.586 7.71583 19.3993C1.21283 15.6463 -0.125173 9.36926 0.00882735 4.82926C0.0233771 4.40793 0.159781 3.99986 0.401517 3.65447C0.643253 3.30908 0.97995 3.04119 1.37083 2.88326L7.91983 0.171255ZM9.06783 1.55726C8.88406 1.48114 8.67759 1.48114 8.49383 1.55726L1.94483 4.27026C1.82209 4.31837 1.7157 4.40064 1.63825 4.50732C1.56081 4.61401 1.51555 4.74065 1.50783 4.87226C1.38283 9.11126 2.62283 14.7283 8.46583 18.1003C8.65783 18.2103 8.89583 18.2103 9.08583 18.0973C14.8108 14.7223 16.1608 9.09826 16.0518 4.87026C16.045 4.73877 16.0002 4.61209 15.9228 4.50558C15.8454 4.39907 15.7388 4.31732 15.6158 4.27026L9.06783 1.55726Z" fill="#737373"/>
</svg>
